<?xml version="1.0" encoding="UTF-8" standalone="no"?><!-- Generator: Gravit.io --><svg xmlns="http://www.w3.org/2000/svg" xmlns:xlink="http://www.w3.org/1999/xlink" style="isolation:isolate" viewBox="0 0 800 800" width="800pt" height="800pt"><defs><clipPath id="_clipPath_aD1uUbp6MUl8DVbICv0WwLaM0R8I6uXZ"><rect width="800" height="800"/></clipPath></defs><g clip-path="url(#_clipPath_aD1uUbp6MUl8DVbICv0WwLaM0R8I6uXZ)"><g><g><g><linearGradient id="_lgradient_0" x1="0.5000085136432351" y1="1.001889531757334" x2="0.6390309789720805" y2="-0.0024383625798611863" gradientTransform="matrix(475.745,0,0,679.544,236.919,58)" gradientUnits="userSpaceOnUse"><stop offset="0%" stop-opacity="1" style="stop-color:rgb(43,44,46)"/><stop offset="100%" stop-opacity="1" style="stop-color:rgb(71,75,78)"/></linearGradient><mask id="_mask_Y3PTJK7rxmGWPv1qevOwjtBKofpny7nr" x="-200%" y="-200%" width="400%" height="400%"><rect x="-200%" y="-200%" width="400%" height="400%" style="fill:white;"/><path d=" M 337.828 125.541 C 276.787 186.485 236.919 287.058 236.919 400.838 C 236.919 514.605 276.784 615.26 337.828 676.214 L 337.828 737.544 L 478.319 737.544 L 478.319 737.462 C 608.078 734.821 712.664 585.137 712.664 400.854 C 712.664 216.565 621.12 74.848 488.558 61.542 C 427.199 53.875 364.799 59.668 307.233 69.262 L 337.825 125.563 L 337.825 125.563 L 337.828 125.541 Z " fill-rule="evenodd" fill="black" stroke="none"/></mask><path d=" M 337.828 125.541 C 276.787 186.485 236.919 287.058 236.919 400.838 C 236.919 514.605 276.784 615.26 337.828 676.214 L 337.828 737.544 L 478.319 737.544 L 478.319 737.462 C 608.078 734.821 712.664 585.137 712.664 400.854 C 712.664 216.565 621.12 74.848 488.558 61.542 C 427.199 53.875 364.799 59.668 307.233 69.262 L 337.825 125.563 L 337.825 125.563 L 337.828 125.541 Z " fill-rule="evenodd" fill="url(#_lgradient_0)"/><path d=" M 337.828 125.541 C 276.787 186.485 236.919 287.058 236.919 400.838 C 236.919 514.605 276.784 615.26 337.828 676.214 L 337.828 737.544 L 478.319 737.544 L 478.319 737.462 C 608.078 734.821 712.664 585.137 712.664 400.854 C 712.664 216.565 621.12 74.848 488.558 61.542 C 427.199 53.875 364.799 59.668 307.233 69.262 L 337.825 125.563 L 337.825 125.563 L 337.828 125.541 Z " fill-rule="evenodd" fill="url(#_lgradient_0)" mask="url(#_mask_Y3PTJK7rxmGWPv1qevOwjtBKofpny7nr)" vector-effect="non-scaling-stroke" stroke-width="2" stroke="rgb(39,41,47)" stroke-linejoin="miter" stroke-linecap="butt" stroke-miterlimit="4"/><linearGradient id="_lgradient_1" x1="0.642407991837316" y1="0.5933459606357572" x2="0.11466534893207136" y2="-0.10815968376302176" gradientTransform="matrix(461.198,0,0,672.922,97.121,66.128)" gradientUnits="userSpaceOnUse"><stop offset="0%" stop-opacity="1" style="stop-color:rgb(50,52,53)"/><stop offset="100%" stop-opacity="1" style="stop-color:rgb(72,74,76)"/></linearGradient><path d=" M 558.32 402.589 C 558.32 588.408 455.077 739.05 327.721 739.05 C 200.364 739.05 97.121 588.414 97.121 402.589 C 97.121 216.769 200.364 66.128 327.721 66.128 C 455.077 66.128 558.32 216.764 558.32 402.589 Z " fill-rule="evenodd" fill="url(#_lgradient_1)"/><radialGradient id="_rgradient_0" fx="0.49996756228405137" fy="0.4999425774225772" cx="0.5" cy="0.5" r="1" gradientTransform="matrix(461.851,0,0,656.813,90,73.862)" gradientUnits="userSpaceOnUse"><stop offset="0%" stop-opacity="1" style="stop-color:rgb(50,53,56)"/><stop offset="77.45100000000001%" stop-opacity="1" style="stop-color:rgb(67,70,72)"/><stop offset="100%" stop-opacity="1" style="stop-color:rgb(50,53,56)"/></radialGradient><path d=" M 320.925 73.862 C 193.381 73.862 90 220.841 90 402.229 C 90 583.612 193.381 730.675 320.925 730.675 C 448.469 730.675 551.851 583.612 551.851 402.229 C 551.851 220.846 448.469 73.862 320.925 73.862 Z  M 320.925 211.209 C 392.441 211.209 450.388 296.69 450.388 402.226 C 450.388 507.76 392.441 593.328 320.925 593.328 C 249.409 593.328 191.463 507.76 191.463 402.226 C 191.463 296.693 249.409 211.209 320.925 211.209 L 320.925 211.209 Z " fill-rule="evenodd" fill="url(#_rgradient_0)" vector-effect="non-scaling-stroke" stroke-width="1" stroke="rgb(48,57,62)" stroke-linejoin="miter" stroke-linecap="butt" stroke-miterlimit="4"/><g><radialGradient id="_rgradient_1" fx="0.5000488857962545" fy="0.499808600091145" cx="0.5" cy="0.5" r="1" gradientTransform="matrix(277.726,0,0,434.348,177.408,190.27)" gradientUnits="userSpaceOnUse"><stop offset="0%" stop-opacity="1" style="stop-color:rgb(0,0,0)"/><stop offset="100%" stop-opacity="1" style="stop-color:rgb(0,0,0)"/></radialGradient><path d=" M 287.307 620.584 C 192.043 585.996 147.302 417.804 199.485 290.435 C 219.601 241.336 254.57 204.621 291.411 193.927 C 363.611 172.971 434.08 244.067 452.252 356.199 C 457.058 385.853 455.639 449.333 449.584 475.65 C 440.296 516.014 424.736 550.974 404.774 576.331 C 379.877 607.955 353.24 623.106 320.177 624.443 C 304.995 625.057 297.067 624.126 287.309 620.583 L 287.307 620.584 Z  M 351.024 563.229 C 378.723 549.488 406.788 510.232 417.111 470.789 C 431.023 417.631 426.288 357.003 404.734 312.332 C 376.934 254.713 329.784 230.852 284.332 251.399 C 277.995 254.264 265.67 263.661 256.942 272.283 C 210.993 317.676 195.654 408.506 220.96 485.376 C 230.066 513.035 255.414 547.502 275.629 559.713 C 298.485 573.52 327.549 574.876 351.024 563.231 L 351.024 563.229 Z " fill="url(#_rgradient_1)"/><mask id="_mask_zbqCrzSivuRDwm6pBx5ql6sqVtce8PXf" x="-200%" y="-200%" width="400%" height="400%"><rect x="-200%" y="-200%" width="400%" height="400%" style="fill:white;"/><path d=" M 457.236 407.748 C 457.236 529.876 394.086 628.879 316.19 628.879 C 238.294 628.879 175.145 529.876 175.145 407.748 C 175.145 285.62 238.294 186.617 316.19 186.617 C 394.086 186.617 457.236 285.62 457.236 407.748 Z " fill="black" stroke="none"/></mask><path d=" M 457.236 407.748 C 457.236 529.876 394.086 628.879 316.19 628.879 C 238.294 628.879 175.145 529.876 175.145 407.748 C 175.145 285.62 238.294 186.617 316.19 186.617 C 394.086 186.617 457.236 285.62 457.236 407.748 Z " fill="none"/><linearGradient id="_lgradient_2" x1="0.19154012555140826" y1="0.3213053770713561" x2="0.7309094155398788" y2="0.7588573668008763"><stop offset="0%" stop-opacity="1" style="stop-color:rgb(155,166,169)"/><stop offset="48.989%" stop-opacity="1" style="stop-color:rgb(253,255,254)"/><stop offset="100%" stop-opacity="1" style="stop-color:rgb(155,162,162)"/></linearGradient><path d=" M 457.236 407.748 C 457.236 529.876 394.086 628.879 316.19 628.879 C 238.294 628.879 175.145 529.876 175.145 407.748 C 175.145 285.62 238.294 186.617 316.19 186.617 C 394.086 186.617 457.236 285.62 457.236 407.748 Z " fill="none" mask="url(#_mask_zbqCrzSivuRDwm6pBx5ql6sqVtce8PXf)" vector-effect="non-scaling-stroke" stroke-width="7.4" stroke="url(#_lgradient_2)" stroke-linejoin="round" stroke-linecap="round" stroke-miterlimit="4"/><radialGradient id="_rgradient_2" fx="0.3831862911435358" fy="0.532009266148123" cx="0.5" cy="0.5" r="1.9409307016280075" gradientTransform="matrix(196.03,0,0,309.181,218.175,253.172)" gradientUnits="userSpaceOnUse"><stop offset="0%" stop-opacity="1" style="stop-color:rgb(18,0,28)"/><stop offset="100%" stop-opacity="0.88627" style="stop-color:rgb(127,127,127)"/></radialGradient><mask id="_mask_QQkoaCAOGhmfXAuGiyTxDmKGdmdlD4JM" x="-200%" y="-200%" width="400%" height="400%"><rect x="-200%" y="-200%" width="400%" height="400%" style="fill:white;"/><path d=" M 414.205 407.763 C 414.205 493.141 370.321 562.353 316.19 562.353 C 262.058 562.353 218.175 493.141 218.175 407.763 C 218.175 322.384 262.058 253.172 316.19 253.172 C 370.321 253.172 414.205 322.384 414.205 407.763 Z " fill="black" stroke="none"/></mask><path d=" M 414.205 407.763 C 414.205 493.141 370.321 562.353 316.19 562.353 C 262.058 562.353 218.175 493.141 218.175 407.763 C 218.175 322.384 262.058 253.172 316.19 253.172 C 370.321 253.172 414.205 322.384 414.205 407.763 Z " fill="url(#_rgradient_2)"/><linearGradient id="_lgradient_3" x1="-0.01963861554122831" y1="0.2135610415962126" x2="0.8865158811433314" y2="0.959890766025101"><stop offset="0%" stop-opacity="1" style="stop-color:rgb(155,166,169)"/><stop offset="48.989%" stop-opacity="1" style="stop-color:rgb(253,255,254)"/><stop offset="100%" stop-opacity="1" style="stop-color:rgb(155,162,162)"/></linearGradient><path d=" M 414.205 407.763 C 414.205 493.141 370.321 562.353 316.19 562.353 C 262.058 562.353 218.175 493.141 218.175 407.763 C 218.175 322.384 262.058 253.172 316.19 253.172 C 370.321 253.172 414.205 322.384 414.205 407.763 Z " fill="url(#_rgradient_2)" mask="url(#_mask_QQkoaCAOGhmfXAuGiyTxDmKGdmdlD4JM)" vector-effect="non-scaling-stroke" stroke-width="4" stroke="url(#_lgradient_3)" stroke-linejoin="round" stroke-linecap="round" stroke-miterlimit="4"/><mask id="_mask_H87dzMqpUejNGqB5w5v9mw2poQxfOsGh" x="-200%" y="-200%" width="400%" height="400%"><rect x="-200%" y="-200%" width="400%" height="400%" style="fill:white;"/><path d=" M 326.033 405.368 C 326.033 425.832 315.266 442.421 301.984 442.421 C 288.703 442.421 277.936 425.831 277.936 405.368 C 277.936 384.903 288.703 368.315 301.984 368.315 C 315.266 368.315 326.033 384.904 326.033 405.368 L 326.033 405.368 Z " fill="black" stroke="none"/></mask><path d=" M 326.033 405.368 C 326.033 425.832 315.266 442.421 301.984 442.421 C 288.703 442.421 277.936 425.831 277.936 405.368 C 277.936 384.903 288.703 368.315 301.984 368.315 C 315.266 368.315 326.033 384.904 326.033 405.368 L 326.033 405.368 Z " fill="rgb(0,0,0)"/><linearGradient id="_lgradient_4" x1="1.296728832747422" y1="0.48102849761846933" x2="-0.32312435598599754" y2="0.6065477862055981"><stop offset="0%" stop-opacity="1" style="stop-color:rgb(99,100,100)"/><stop offset="100%" stop-opacity="0" style="stop-color:rgb(99,100,100)"/></linearGradient><path d=" M 326.033 405.368 C 326.033 425.832 315.266 442.421 301.984 442.421 C 288.703 442.421 277.936 425.831 277.936 405.368 C 277.936 384.903 288.703 368.315 301.984 368.315 C 315.266 368.315 326.033 384.904 326.033 405.368 L 326.033 405.368 Z " fill="rgb(0,0,0)" mask="url(#_mask_H87dzMqpUejNGqB5w5v9mw2poQxfOsGh)" vector-effect="non-scaling-stroke" stroke-width="4.002" stroke="url(#_lgradient_4)" stroke-linejoin="miter" stroke-linecap="butt" stroke-miterlimit="4"/><linearGradient id="_lgradient_5" x1="0.7688533436123599" y1="0.9743247983163812" x2="0.47851150231069417" y2="0.032665990280539514" gradientTransform="matrix(75.478,0,0,85.282,329.98,319.935)" gradientUnits="userSpaceOnUse"><stop offset="0%" stop-opacity="1" style="stop-color:rgb(18,0,28)"/><stop offset="41.175%" stop-opacity="1" style="stop-color:rgb(141,152,157)"/><stop offset="100%" stop-opacity="1" style="stop-color:rgb(34,0,28)"/></linearGradient><mask id="_mask_Ot44vVFMJAqPgkcq3v51mSGlJlINNXBj" x="-200%" y="-200%" width="400%" height="400%"><rect x="-200%" y="-200%" width="400%" height="400%" style="fill:white;"/><path d=" M 329.98 374.61 C 338.442 370.379 389.088 319.935 389.088 319.935 C 398.18 342.792 407.907 371.421 404.902 405.217 L 335.737 398.295 C 337.032 394.007 334.06 386.929 331.506 380.716 L 329.98 374.611 L 329.98 374.61 Z " fill="black" stroke="none"/></mask><path d=" M 329.98 374.61 C 338.442 370.379 389.088 319.935 389.088 319.935 C 398.18 342.792 407.907 371.421 404.902 405.217 L 335.737 398.295 C 337.032 394.007 334.06 386.929 331.506 380.716 L 329.98 374.611 L 329.98 374.61 Z " fill="url(#_lgradient_5)"/><path d=" M 329.98 374.61 C 338.442 370.379 389.088 319.935 389.088 319.935 C 398.18 342.792 407.907 371.421 404.902 405.217 L 335.737 398.295 C 337.032 394.007 334.06 386.929 331.506 380.716 L 329.98 374.611 L 329.98 374.61 Z " fill="url(#_lgradient_5)" mask="url(#_mask_Ot44vVFMJAqPgkcq3v51mSGlJlINNXBj)" vector-effect="non-scaling-stroke" stroke-width="2" stroke="rgb(0,0,0)" stroke-linejoin="miter" stroke-linecap="butt" stroke-miterlimit="4"/><linearGradient id="_lgradient_6" x1="0.04968416684597177" y1="0.7858401569164677" x2="0.9077779603824833" y2="0.18578975215748872" gradientTransform="matrix(77.852,0,0,96.077,324.078,420.914)" gradientUnits="userSpaceOnUse"><stop offset="0%" stop-opacity="1" style="stop-color:rgb(18,0,28)"/><stop offset="50%" stop-opacity="1" style="stop-color:rgb(141,152,157)"/><stop offset="100%" stop-opacity="1" style="stop-color:rgb(34,0,28)"/></linearGradient><mask id="_mask_WJslRfilN6NL8qquczWywcpyo5MMyTeJ" x="-200%" y="-200%" width="400%" height="400%"><rect x="-200%" y="-200%" width="400%" height="400%" style="fill:white;"/><path d=" M 336.771 420.915 C 332.54 431.792 328.309 437.021 324.078 439.954 L 372.316 516.991 C 385.582 508.768 397.676 480.121 401.931 455.242 L 336.769 420.914 L 336.771 420.915 Z " fill="black" stroke="none"/></mask><path d=" M 336.771 420.915 C 332.54 431.792 328.309 437.021 324.078 439.954 L 372.316 516.991 C 385.582 508.768 397.676 480.121 401.931 455.242 L 336.769 420.914 L 336.771 420.915 Z " fill="url(#_lgradient_6)"/><path d=" M 336.771 420.915 C 332.54 431.792 328.309 437.021 324.078 439.954 L 372.316 516.991 C 385.582 508.768 397.676 480.121 401.931 455.242 L 336.769 420.914 L 336.771 420.915 Z " fill="url(#_lgradient_6)" mask="url(#_mask_WJslRfilN6NL8qquczWywcpyo5MMyTeJ)" vector-effect="non-scaling-stroke" stroke-width="2" stroke="rgb(0,0,0)" stroke-linejoin="miter" stroke-linecap="butt" stroke-miterlimit="4"/><linearGradient id="_lgradient_7" x1="-0.02187240005254587" y1="0.5000027823363364" x2="1.0880726812067956" y2="0.5560097876586819" gradientTransform="matrix(68.312,0,0,107.387,257.688,446.281)" gradientUnits="userSpaceOnUse"><stop offset="0%" stop-opacity="1" style="stop-color:rgb(18,0,28)"/><stop offset="50%" stop-opacity="1" style="stop-color:rgb(141,152,157)"/><stop offset="100%" stop-opacity="1" style="stop-color:rgb(34,0,28)"/></linearGradient><mask id="_mask_iONKUAsHreMWz2VP5KainVoCG32D50zg" x="-200%" y="-200%" width="400%" height="400%"><rect x="-200%" y="-200%" width="400%" height="400%" style="fill:white;"/><path d=" M 283.897 446.281 C 292.23 450.918 293.68 455.758 307.838 452.628 L 326.001 552.178 C 304.939 557.542 284.652 548.327 257.688 526.152 L 283.895 446.284 L 283.897 446.281 Z " fill="black" stroke="none"/></mask><path d=" M 283.897 446.281 C 292.23 450.918 293.68 455.758 307.838 452.628 L 326.001 552.178 C 304.939 557.542 284.652 548.327 257.688 526.152 L 283.895 446.284 L 283.897 446.281 Z " fill="url(#_lgradient_7)"/><path d=" M 283.897 446.281 C 292.23 450.918 293.68 455.758 307.838 452.628 L 326.001 552.178 C 304.939 557.542 284.652 548.327 257.688 526.152 L 283.895 446.284 L 283.897 446.281 Z " fill="url(#_lgradient_7)" mask="url(#_mask_iONKUAsHreMWz2VP5KainVoCG32D50zg)" vector-effect="non-scaling-stroke" stroke-width="2" stroke="rgb(0,0,0)" stroke-linejoin="miter" stroke-linecap="butt" stroke-miterlimit="4"/><linearGradient id="_lgradient_8" x1="0.572938700387275" y1="0.058745633006155984" x2="0.5394378306523361" y2="0.8324323857901551" gradientTransform="matrix(52.001,0,0,89.903,222.066,372.799)" gradientUnits="userSpaceOnUse"><stop offset="0%" stop-opacity="1" style="stop-color:rgb(18,0,28)"/><stop offset="50%" stop-opacity="1" style="stop-color:rgb(141,152,157)"/><stop offset="100%" stop-opacity="1" style="stop-color:rgb(34,0,28)"/></linearGradient><mask id="_mask_MV6nSQqi3C3PV2UsXRr4UsS7ridU79hk" x="-200%" y="-200%" width="400%" height="400%"><rect x="-200%" y="-200%" width="400%" height="400%" style="fill:white;"/><path d=" M 274.067 426.868 C 269.894 416.977 269.834 403.721 271.642 391.837 L 226.163 372.799 C 220.796 401.182 219.02 430.363 231.451 462.702 L 274.068 426.869 L 274.067 426.868 Z " fill="black" stroke="none"/></mask><path d=" M 274.067 426.868 C 269.894 416.977 269.834 403.721 271.642 391.837 L 226.163 372.799 C 220.796 401.182 219.02 430.363 231.451 462.702 L 274.068 426.869 L 274.067 426.868 Z " fill="url(#_lgradient_8)"/><path d=" M 274.067 426.868 C 269.894 416.977 269.834 403.721 271.642 391.837 L 226.163 372.799 C 220.796 401.182 219.02 430.363 231.451 462.702 L 274.068 426.869 L 274.067 426.868 Z " fill="url(#_lgradient_8)" mask="url(#_mask_MV6nSQqi3C3PV2UsXRr4UsS7ridU79hk)" vector-effect="non-scaling-stroke" stroke-width="2" stroke="rgb(0,0,0)" stroke-linejoin="miter" stroke-linecap="butt" stroke-miterlimit="4"/><linearGradient id="_lgradient_9" x1="-0.019105675520735055" y1="0.6566053217722772" x2="1.0089837836878055" y2="0.6176350423716048" gradientTransform="matrix(78.267,0,0,107.324,256.397,261.754)" gradientUnits="userSpaceOnUse"><stop offset="0%" stop-opacity="1" style="stop-color:rgb(18,0,28)"/><stop offset="50%" stop-opacity="1" style="stop-color:rgb(141,152,157)"/><stop offset="100%" stop-opacity="1" style="stop-color:rgb(34,0,28)"/></linearGradient><mask id="_mask_KG6wGdX8y8hysH2ymoAdVD2LMvP4rUKE" x="-200%" y="-200%" width="400%" height="400%"><rect x="-200%" y="-200%" width="400%" height="400%" style="fill:white;"/><path d=" M 280.723 369.076 C 290.947 360.246 301.171 354.396 311.396 359.557 L 334.664 267.539 C 313.519 256.046 288.79 259.789 256.397 296.097 L 280.724 369.078 L 280.723 369.076 Z " fill="black" stroke="none"/></mask><path d=" M 280.723 369.076 C 290.947 360.246 301.171 354.396 311.396 359.557 L 334.664 267.539 C 313.519 256.046 288.79 259.789 256.397 296.097 L 280.724 369.078 L 280.723 369.076 Z " fill="url(#_lgradient_9)"/><path d=" M 280.723 369.076 C 290.947 360.246 301.171 354.396 311.396 359.557 L 334.664 267.539 C 313.519 256.046 288.79 259.789 256.397 296.097 L 280.724 369.078 L 280.723 369.076 Z " fill="url(#_lgradient_9)" mask="url(#_mask_KG6wGdX8y8hysH2ymoAdVD2LMvP4rUKE)" vector-effect="non-scaling-stroke" stroke-width="2" stroke="rgb(0,0,0)" stroke-linejoin="miter" stroke-linecap="butt" stroke-miterlimit="4"/><mask id="_mask_ukeg0RAXsmddul9vwxWCOHKdQghhVI4B" x="-200%" y="-200%" width="400%" height="400%"><rect x="-200%" y="-200%" width="400%" height="400%" style="fill:white;"/><path d=" M 314.853 404.765 C 314.853 424.842 306.444 441.116 296.07 441.116 C 285.697 441.116 277.287 424.841 277.287 404.765 C 277.287 384.688 285.697 368.414 296.07 368.414 C 306.444 368.414 314.853 384.689 314.853 404.765 L 314.853 404.765 Z " fill="black" stroke="none"/></mask><path d=" M 314.853 404.765 C 314.853 424.842 306.444 441.116 296.07 441.116 C 285.697 441.116 277.287 424.841 277.287 404.765 C 277.287 384.688 285.697 368.414 296.07 368.414 C 306.444 368.414 314.853 384.689 314.853 404.765 L 314.853 404.765 Z " fill="rgb(0,0,0)"/><path d=" M 314.853 404.765 C 314.853 424.842 306.444 441.116 296.07 441.116 C 285.697 441.116 277.287 424.841 277.287 404.765 C 277.287 384.688 285.697 368.414 296.07 368.414 C 306.444 368.414 314.853 384.689 314.853 404.765 L 314.853 404.765 Z " fill="rgb(0,0,0)" mask="url(#_mask_ukeg0RAXsmddul9vwxWCOHKdQghhVI4B)" vector-effect="non-scaling-stroke" stroke-width="2.648" stroke="rgb(99,100,100)" stroke-linejoin="miter" stroke-linecap="butt" stroke-miterlimit="4"/><mask id="_mask_bUtVMDnpaOQ8f6msPJ7RRzVv51nKWV8R" x="-200%" y="-200%" width="400%" height="400%"><rect x="-200%" y="-200%" width="400%" height="400%" style="fill:white;"/><path d=" M 303.779 405.839 C 303.779 413.012 300.793 418.827 297.11 418.827 C 293.426 418.827 290.44 413.012 290.44 405.839 C 290.44 398.666 293.426 392.852 297.11 392.852 C 300.793 392.852 303.779 398.666 303.779 405.839 Z " fill="black" stroke="none"/></mask><path d=" M 303.779 405.839 C 303.779 413.012 300.793 418.827 297.11 418.827 C 293.426 418.827 290.44 413.012 290.44 405.839 C 290.44 398.666 293.426 392.852 297.11 392.852 C 300.793 392.852 303.779 398.666 303.779 405.839 Z " fill="rgb(0,0,0)"/><linearGradient id="_lgradient_10" x1="-0.06270991027118811" y1="0.5" x2="1.0626597824452375" y2="0.5"><stop offset="0%" stop-opacity="1" style="stop-color:rgb(205,207,212)"/><stop offset="100%" stop-opacity="0" style="stop-color:rgb(220,222,230)"/></linearGradient><path d=" M 303.779 405.839 C 303.779 413.012 300.793 418.827 297.11 418.827 C 293.426 418.827 290.44 413.012 290.44 405.839 C 290.44 398.666 293.426 392.852 297.11 392.852 C 300.793 392.852 303.779 398.666 303.779 405.839 Z " fill="rgb(0,0,0)" mask="url(#_mask_bUtVMDnpaOQ8f6msPJ7RRzVv51nKWV8R)" vector-effect="non-scaling-stroke" stroke-width="1.003" stroke="url(#_lgradient_10)" stroke-linejoin="round" stroke-linecap="round" stroke-miterlimit="4"/></g><mask id="_mask_tM7Ki72ZpCT8dOwVNU46pE3WeHV0yFXe" x="-200%" y="-200%" width="400%" height="400%"><rect x="-200%" y="-200%" width="400%" height="400%" style="fill:white;"/><path d=" M 419.191 60.004 C 418.962 63.204 418.73 66.421 418.484 69.655 C 425.094 72.674 431.69 75.733 438.268 78.826 C 437.854 81.972 437.428 85.136 436.979 88.317 C 443.522 91.444 450.047 94.606 456.55 97.796 C 456.067 101.016 455.559 104.256 455.021 107.515 C 461.437 110.787 467.83 114.09 474.197 117.418 C 473.568 120.765 472.906 124.134 472.2 127.524 C 478.513 130.859 484.801 134.22 491.061 137.601 C 490.301 141.001 489.499 144.424 488.646 147.867 C 494.867 151.311 501.059 154.776 507.221 158.258 C 506.327 161.768 505.381 165.301 504.376 168.856 C 510.465 172.406 516.523 175.975 522.549 179.558 C 521.467 183.184 520.325 186.834 519.116 190.504 C 525.088 194.161 531.028 197.832 536.935 201.516 C 535.669 205.264 534.334 209.034 532.925 212.825 C 533.695 213.333 534.465 213.841 535.235 214.349 C 536.786 215.374 538.334 216.4 539.879 217.426 C 543.321 219.713 546.749 222.006 550.162 224.305 C 548.616 228.232 546.989 232.183 545.273 236.153 C 550.895 240.035 556.475 243.929 562.011 247.831 C 560.21 251.836 558.319 255.858 556.335 259.895 C 561.753 263.898 567.124 267.909 572.446 271.924 C 570.337 276.06 568.13 280.208 565.824 284.367 C 571.045 288.451 576.213 292.537 581.326 296.627 C 578.913 300.85 576.399 305.081 573.782 309.319 C 578.778 313.478 583.714 317.637 588.589 321.8 C 585.848 326.102 583.003 330.407 580.055 334.717 C 584.713 338.992 589.301 343.269 593.818 347.553 C 590.64 351.969 587.354 356.384 583.965 360.801 C 588.347 365.073 592.654 369.35 596.882 373.638 C 595.887 374.879 594.883 376.12 593.871 377.36 C 592.643 378.865 591.404 380.369 590.152 381.874 C 588.781 383.522 587.394 385.169 585.994 386.816 C 590.07 390.765 594.072 394.712 598.002 398.66 C 594.147 402.694 590.209 406.719 586.193 410.736 C 589.926 415.047 593.573 419.354 597.137 423.662 C 592.899 428.034 588.571 432.393 584.16 436.739 C 587.573 441.028 590.904 445.313 594.151 449.596 C 589.595 453.916 584.959 458.221 580.248 462.511 C 583.247 466.814 586.164 471.111 588.996 475.401 C 584.039 479.704 579.009 483.987 573.909 488.256 C 576.651 492.442 579.312 496.62 581.891 500.787 C 576.71 504.945 571.466 509.085 566.16 513.21 C 568.622 517.32 571.004 521.416 573.303 525.499 C 567.887 529.558 562.415 533.599 556.886 537.625 C 559.053 541.633 561.139 545.621 563.139 549.589 C 562.249 550.21 561.357 550.831 560.464 551.452 C 558.583 552.76 556.696 554.067 554.804 555.372 C 551.893 557.378 548.97 559.38 546.034 561.378 C 547.958 565.262 549.811 569.126 551.593 572.969 C 545.776 576.803 539.916 580.621 534.016 584.424 C 535.613 588.237 537.142 592.029 538.604 595.8 C 532.52 599.572 526.397 603.33 520.237 607.075 C 521.696 610.721 523.092 614.347 524.426 617.954 C 518.27 621.576 512.08 625.186 505.858 628.782 C 507.099 632.332 508.28 635.862 509.403 639.373 C 503.092 642.913 496.751 646.441 490.382 649.957 C 491.478 653.389 492.518 656.804 493.506 660.199 C 487.114 663.638 480.697 667.065 474.256 670.48 C 475.212 673.808 476.117 677.119 476.975 680.411 C 470.506 683.76 464.015 687.098 457.504 690.423 C 458.21 693.693 458.871 696.945 459.49 700.179 C 452.831 703.482 446.153 706.775 439.458 710.053 C 440.123 713.184 440.748 716.299 441.338 719.395 C 434.694 722.575 428.034 725.742 421.36 728.894 C 421.805 732.062 422.215 735.212 422.595 738.343" fill="black" stroke="none"/></mask><path d=" M 419.191 60.004 C 418.962 63.204 418.73 66.421 418.484 69.655 C 425.094 72.674 431.69 75.733 438.268 78.826 C 437.854 81.972 437.428 85.136 436.979 88.317 C 443.522 91.444 450.047 94.606 456.55 97.796 C 456.067 101.016 455.559 104.256 455.021 107.515 C 461.437 110.787 467.83 114.09 474.197 117.418 C 473.568 120.765 472.906 124.134 472.2 127.524 C 478.513 130.859 484.801 134.22 491.061 137.601 C 490.301 141.001 489.499 144.424 488.646 147.867 C 494.867 151.311 501.059 154.776 507.221 158.258 C 506.327 161.768 505.381 165.301 504.376 168.856 C 510.465 172.406 516.523 175.975 522.549 179.558 C 521.467 183.184 520.325 186.834 519.116 190.504 C 525.088 194.161 531.028 197.832 536.935 201.516 C 535.669 205.264 534.334 209.034 532.925 212.825 C 533.695 213.333 534.465 213.841 535.235 214.349 C 536.786 215.374 538.334 216.4 539.879 217.426 C 543.321 219.713 546.749 222.006 550.162 224.305 C 548.616 228.232 546.989 232.183 545.273 236.153 C 550.895 240.035 556.475 243.929 562.011 247.831 C 560.21 251.836 558.319 255.858 556.335 259.895 C 561.753 263.898 567.124 267.909 572.446 271.924 C 570.337 276.06 568.13 280.208 565.824 284.367 C 571.045 288.451 576.213 292.537 581.326 296.627 C 578.913 300.85 576.399 305.081 573.782 309.319 C 578.778 313.478 583.714 317.637 588.589 321.8 C 585.848 326.102 583.003 330.407 580.055 334.717 C 584.713 338.992 589.301 343.269 593.818 347.553 C 590.64 351.969 587.354 356.384 583.965 360.801 C 588.347 365.073 592.654 369.35 596.882 373.638 C 595.887 374.879 594.883 376.12 593.871 377.36 C 592.643 378.865 591.404 380.369 590.152 381.874 C 588.781 383.522 587.394 385.169 585.994 386.816 C 590.07 390.765 594.072 394.712 598.002 398.66 C 594.147 402.694 590.209 406.719 586.193 410.736 C 589.926 415.047 593.573 419.354 597.137 423.662 C 592.899 428.034 588.571 432.393 584.16 436.739 C 587.573 441.028 590.904 445.313 594.151 449.596 C 589.595 453.916 584.959 458.221 580.248 462.511 C 583.247 466.814 586.164 471.111 588.996 475.401 C 584.039 479.704 579.009 483.987 573.909 488.256 C 576.651 492.442 579.312 496.62 581.891 500.787 C 576.71 504.945 571.466 509.085 566.16 513.21 C 568.622 517.32 571.004 521.416 573.303 525.499 C 567.887 529.558 562.415 533.599 556.886 537.625 C 559.053 541.633 561.139 545.621 563.139 549.589 C 562.249 550.21 561.357 550.831 560.464 551.452 C 558.583 552.76 556.696 554.067 554.804 555.372 C 551.893 557.378 548.97 559.38 546.034 561.378 C 547.958 565.262 549.811 569.126 551.593 572.969 C 545.776 576.803 539.916 580.621 534.016 584.424 C 535.613 588.237 537.142 592.029 538.604 595.8 C 532.52 599.572 526.397 603.33 520.237 607.075 C 521.696 610.721 523.092 614.347 524.426 617.954 C 518.27 621.576 512.08 625.186 505.858 628.782 C 507.099 632.332 508.28 635.862 509.403 639.373 C 503.092 642.913 496.751 646.441 490.382 649.957 C 491.478 653.389 492.518 656.804 493.506 660.199 C 487.114 663.638 480.697 667.065 474.256 670.48 C 475.212 673.808 476.117 677.119 476.975 680.411 C 470.506 683.76 464.015 687.098 457.504 690.423 C 458.21 693.693 458.871 696.945 459.49 700.179 C 452.831 703.482 446.153 706.775 439.458 710.053 C 440.123 713.184 440.748 716.299 441.338 719.395 C 434.694 722.575 428.034 725.742 421.36 728.894 C 421.805 732.062 422.215 735.212 422.595 738.343" fill="none"/><linearGradient id="_lgradient_11" x1="0.36345760865226673" y1="0.5364134639172751" x2="1.639347455070034" y2="-0.124853331612656"><stop offset="0%" stop-opacity="1" style="stop-color:rgb(50,53,56)"/><stop offset="57.374%" stop-opacity="1" style="stop-color:rgb(82,86,86)"/><stop offset="100%" stop-opacity="1" style="stop-color:rgb(50,53,56)"/></linearGradient><path d=" M 419.191 60.004 C 418.962 63.204 418.73 66.421 418.484 69.655 C 425.094 72.674 431.69 75.733 438.268 78.826 C 437.854 81.972 437.428 85.136 436.979 88.317 C 443.522 91.444 450.047 94.606 456.55 97.796 C 456.067 101.016 455.559 104.256 455.021 107.515 C 461.437 110.787 467.83 114.09 474.197 117.418 C 473.568 120.765 472.906 124.134 472.2 127.524 C 478.513 130.859 484.801 134.22 491.061 137.601 C 490.301 141.001 489.499 144.424 488.646 147.867 C 494.867 151.311 501.059 154.776 507.221 158.258 C 506.327 161.768 505.381 165.301 504.376 168.856 C 510.465 172.406 516.523 175.975 522.549 179.558 C 521.467 183.184 520.325 186.834 519.116 190.504 C 525.088 194.161 531.028 197.832 536.935 201.516 C 535.669 205.264 534.334 209.034 532.925 212.825 C 533.695 213.333 534.465 213.841 535.235 214.349 C 536.786 215.374 538.334 216.4 539.879 217.426 C 543.321 219.713 546.749 222.006 550.162 224.305 C 548.616 228.232 546.989 232.183 545.273 236.153 C 550.895 240.035 556.475 243.929 562.011 247.831 C 560.21 251.836 558.319 255.858 556.335 259.895 C 561.753 263.898 567.124 267.909 572.446 271.924 C 570.337 276.06 568.13 280.208 565.824 284.367 C 571.045 288.451 576.213 292.537 581.326 296.627 C 578.913 300.85 576.399 305.081 573.782 309.319 C 578.778 313.478 583.714 317.637 588.589 321.8 C 585.848 326.102 583.003 330.407 580.055 334.717 C 584.713 338.992 589.301 343.269 593.818 347.553 C 590.64 351.969 587.354 356.384 583.965 360.801 C 588.347 365.073 592.654 369.35 596.882 373.638 C 595.887 374.879 594.883 376.12 593.871 377.36 C 592.643 378.865 591.404 380.369 590.152 381.874 C 588.781 383.522 587.394 385.169 585.994 386.816 C 590.07 390.765 594.072 394.712 598.002 398.66 C 594.147 402.694 590.209 406.719 586.193 410.736 C 589.926 415.047 593.573 419.354 597.137 423.662 C 592.899 428.034 588.571 432.393 584.16 436.739 C 587.573 441.028 590.904 445.313 594.151 449.596 C 589.595 453.916 584.959 458.221 580.248 462.511 C 583.247 466.814 586.164 471.111 588.996 475.401 C 584.039 479.704 579.009 483.987 573.909 488.256 C 576.651 492.442 579.312 496.62 581.891 500.787 C 576.71 504.945 571.466 509.085 566.16 513.21 C 568.622 517.32 571.004 521.416 573.303 525.499 C 567.887 529.558 562.415 533.599 556.886 537.625 C 559.053 541.633 561.139 545.621 563.139 549.589 C 562.249 550.21 561.357 550.831 560.464 551.452 C 558.583 552.76 556.696 554.067 554.804 555.372 C 551.893 557.378 548.97 559.38 546.034 561.378 C 547.958 565.262 549.811 569.126 551.593 572.969 C 545.776 576.803 539.916 580.621 534.016 584.424 C 535.613 588.237 537.142 592.029 538.604 595.8 C 532.52 599.572 526.397 603.33 520.237 607.075 C 521.696 610.721 523.092 614.347 524.426 617.954 C 518.27 621.576 512.08 625.186 505.858 628.782 C 507.099 632.332 508.28 635.862 509.403 639.373 C 503.092 642.913 496.751 646.441 490.382 649.957 C 491.478 653.389 492.518 656.804 493.506 660.199 C 487.114 663.638 480.697 667.065 474.256 670.48 C 475.212 673.808 476.117 677.119 476.975 680.411 C 470.506 683.76 464.015 687.098 457.504 690.423 C 458.21 693.693 458.871 696.945 459.49 700.179 C 452.831 703.482 446.153 706.775 439.458 710.053 C 440.123 713.184 440.748 716.299 441.338 719.395 C 434.694 722.575 428.034 725.742 421.36 728.894 C 421.805 732.062 422.215 735.212 422.595 738.343" fill="none" mask="url(#_mask_tM7Ki72ZpCT8dOwVNU46pE3WeHV0yFXe)" vector-effect="non-scaling-stroke" stroke-width="3.2" stroke="url(#_lgradient_11)" stroke-linejoin="miter" stroke-linecap="butt" stroke-miterlimit="4"/><mask id="_mask_a6P4hEH9TzX9MWU2CnivTpu7CPyVhnbg" x="-200%" y="-200%" width="400%" height="400%"><rect x="-200%" y="-200%" width="400%" height="400%" style="fill:white;"/><path d=" M 497.904 63.731 C 498.114 66.359 498.139 69.068 498.024 71.858 C 505.644 74.427 513.22 76.913 520.773 79.352 C 520.584 82.201 520.249 85.11 519.807 88.08 C 527.418 90.667 534.989 93.209 542.536 95.739 C 542.127 98.846 541.602 102.001 540.994 105.208 C 548.493 107.907 555.954 110.597 563.387 113.309 C 562.706 116.677 561.932 120.086 561.094 123.539 C 568.478 126.316 575.823 129.112 583.137 131.955 C 582.234 135.461 581.262 139.002 580.246 142.582 C 587.497 145.514 594.705 148.492 601.875 151.538 C 600.78 155.199 599.635 158.892 598.458 162.623 C 605.501 165.742 612.496 168.927 619.443 172.2 C 618.126 175.995 616.774 179.822 615.398 183.689 C 622.224 187.012 628.995 190.42 635.706 193.928 C 634.618 196.753 633.516 199.596 632.404 202.461 C 632.07 203.322 631.734 204.185 631.398 205.051 C 631.305 205.291 631.212 205.532 631.118 205.773 C 637.618 209.369 644.047 213.069 650.393 216.87 C 648.617 220.945 646.815 225.064 644.978 229.227 C 651.165 233 657.27 236.87 663.287 240.83 C 661.293 244.959 659.266 249.128 657.194 253.335 C 663.024 257.328 668.764 261.409 674.41 265.565 C 672.149 269.804 669.842 274.08 667.476 278.383 C 672.963 282.542 678.357 286.777 683.657 291.07 C 681.13 295.378 678.542 299.714 675.878 304.066 C 681.011 308.376 686.052 312.745 691.001 317.155 C 688.169 321.527 685.256 325.917 682.247 330.306 C 686.939 334.796 691.54 339.327 696.055 343.876 C 692.782 348.354 689.405 352.835 685.903 357.295 C 690.258 361.828 694.531 366.383 698.731 370.928 C 698.527 371.178 698.322 371.427 698.117 371.676 C 698.015 371.798 697.913 371.921 697.812 372.044 C 694.438 376.124 690.954 380.182 687.357 384.196 C 691.399 388.422 695.387 392.635 699.338 396.822 C 695.289 400.89 691.122 404.912 686.84 408.87 C 690.564 413.492 694.242 418.092 697.887 422.656 C 693.348 427.052 688.673 431.38 683.863 435.626 C 687.337 440.255 690.781 444.851 694.205 449.405 C 689.227 453.716 684.115 457.944 678.875 462.082 C 682.016 466.748 685.136 471.373 688.24 475.957 C 682.714 480.2 677.057 484.345 671.279 488.391 C 674.266 492.972 677.241 497.507 680.205 502.001 C 674.318 506.038 668.315 509.974 662.207 513.812 C 665.018 518.346 667.819 522.834 670.607 527.283 C 664.35 531.15 657.993 534.914 651.547 538.587 C 654.156 543.045 656.75 547.459 659.323 551.842 C 658.38 552.364 657.435 552.884 656.489 553.402 C 655.054 554.187 653.616 554.968 652.175 555.744 C 647.893 558.051 643.583 560.321 639.245 562.562 C 641.697 566.925 644.129 571.252 646.521 575.557 C 639.654 579.016 632.73 582.399 625.753 585.733 C 627.905 590.028 630.016 594.293 632.066 598.539 C 624.859 601.848 617.607 605.103 610.311 608.332 C 612.354 612.461 614.339 616.563 616.244 620.648 C 608.957 623.751 601.637 626.825 594.282 629.898 C 596.09 633.901 597.822 637.879 599.452 641.838 C 592.015 644.818 584.553 647.794 577.063 650.794 C 578.695 654.632 580.231 658.443 581.646 662.235 C 574.173 665.102 566.683 667.991 559.17 670.928 C 560.603 674.584 561.918 678.212 563.09 681.816 C 555.611 684.607 548.121 687.445 540.612 690.355 C 541.686 693.836 542.624 697.284 543.398 700.699 C 535.81 703.477 528.215 706.331 520.601 709.289 C 521.534 712.492 522.309 715.656 522.9 718.783 C 515.462 721.519 508.019 724.357 500.558 727.324 C 501.121 730.379 501.501 733.382 501.667 736.332" fill="black" stroke="none"/></mask><path d=" M 497.904 63.731 C 498.114 66.359 498.139 69.068 498.024 71.858 C 505.644 74.427 513.22 76.913 520.773 79.352 C 520.584 82.201 520.249 85.11 519.807 88.08 C 527.418 90.667 534.989 93.209 542.536 95.739 C 542.127 98.846 541.602 102.001 540.994 105.208 C 548.493 107.907 555.954 110.597 563.387 113.309 C 562.706 116.677 561.932 120.086 561.094 123.539 C 568.478 126.316 575.823 129.112 583.137 131.955 C 582.234 135.461 581.262 139.002 580.246 142.582 C 587.497 145.514 594.705 148.492 601.875 151.538 C 600.78 155.199 599.635 158.892 598.458 162.623 C 605.501 165.742 612.496 168.927 619.443 172.2 C 618.126 175.995 616.774 179.822 615.398 183.689 C 622.224 187.012 628.995 190.42 635.706 193.928 C 634.618 196.753 633.516 199.596 632.404 202.461 C 632.07 203.322 631.734 204.185 631.398 205.051 C 631.305 205.291 631.212 205.532 631.118 205.773 C 637.618 209.369 644.047 213.069 650.393 216.87 C 648.617 220.945 646.815 225.064 644.978 229.227 C 651.165 233 657.27 236.87 663.287 240.83 C 661.293 244.959 659.266 249.128 657.194 253.335 C 663.024 257.328 668.764 261.409 674.41 265.565 C 672.149 269.804 669.842 274.08 667.476 278.383 C 672.963 282.542 678.357 286.777 683.657 291.07 C 681.13 295.378 678.542 299.714 675.878 304.066 C 681.011 308.376 686.052 312.745 691.001 317.155 C 688.169 321.527 685.256 325.917 682.247 330.306 C 686.939 334.796 691.54 339.327 696.055 343.876 C 692.782 348.354 689.405 352.835 685.903 357.295 C 690.258 361.828 694.531 366.383 698.731 370.928 C 698.527 371.178 698.322 371.427 698.117 371.676 C 698.015 371.798 697.913 371.921 697.812 372.044 C 694.438 376.124 690.954 380.182 687.357 384.196 C 691.399 388.422 695.387 392.635 699.338 396.822 C 695.289 400.89 691.122 404.912 686.84 408.87 C 690.564 413.492 694.242 418.092 697.887 422.656 C 693.348 427.052 688.673 431.38 683.863 435.626 C 687.337 440.255 690.781 444.851 694.205 449.405 C 689.227 453.716 684.115 457.944 678.875 462.082 C 682.016 466.748 685.136 471.373 688.24 475.957 C 682.714 480.2 677.057 484.345 671.279 488.391 C 674.266 492.972 677.241 497.507 680.205 502.001 C 674.318 506.038 668.315 509.974 662.207 513.812 C 665.018 518.346 667.819 522.834 670.607 527.283 C 664.35 531.15 657.993 534.914 651.547 538.587 C 654.156 543.045 656.75 547.459 659.323 551.842 C 658.38 552.364 657.435 552.884 656.489 553.402 C 655.054 554.187 653.616 554.968 652.175 555.744 C 647.893 558.051 643.583 560.321 639.245 562.562 C 641.697 566.925 644.129 571.252 646.521 575.557 C 639.654 579.016 632.73 582.399 625.753 585.733 C 627.905 590.028 630.016 594.293 632.066 598.539 C 624.859 601.848 617.607 605.103 610.311 608.332 C 612.354 612.461 614.339 616.563 616.244 620.648 C 608.957 623.751 601.637 626.825 594.282 629.898 C 596.09 633.901 597.822 637.879 599.452 641.838 C 592.015 644.818 584.553 647.794 577.063 650.794 C 578.695 654.632 580.231 658.443 581.646 662.235 C 574.173 665.102 566.683 667.991 559.17 670.928 C 560.603 674.584 561.918 678.212 563.09 681.816 C 555.611 684.607 548.121 687.445 540.612 690.355 C 541.686 693.836 542.624 697.284 543.398 700.699 C 535.81 703.477 528.215 706.331 520.601 709.289 C 521.534 712.492 522.309 715.656 522.9 718.783 C 515.462 721.519 508.019 724.357 500.558 727.324 C 501.121 730.379 501.501 733.382 501.667 736.332" fill="none"/><linearGradient id="_lgradient_12" x1="-0.015301808690518115" y1="0.4999115565105907" x2="1.2256832210349022" y2="-0.2076644451340871"><stop offset="0%" stop-opacity="1" style="stop-color:rgb(50,53,56)"/><stop offset="57.374%" stop-opacity="1" style="stop-color:rgb(82,86,86)"/><stop offset="100%" stop-opacity="1" style="stop-color:rgb(50,53,56)"/></linearGradient><path d=" M 497.904 63.731 C 498.114 66.359 498.139 69.068 498.024 71.858 C 505.644 74.427 513.22 76.913 520.773 79.352 C 520.584 82.201 520.249 85.11 519.807 88.08 C 527.418 90.667 534.989 93.209 542.536 95.739 C 542.127 98.846 541.602 102.001 540.994 105.208 C 548.493 107.907 555.954 110.597 563.387 113.309 C 562.706 116.677 561.932 120.086 561.094 123.539 C 568.478 126.316 575.823 129.112 583.137 131.955 C 582.234 135.461 581.262 139.002 580.246 142.582 C 587.497 145.514 594.705 148.492 601.875 151.538 C 600.78 155.199 599.635 158.892 598.458 162.623 C 605.501 165.742 612.496 168.927 619.443 172.2 C 618.126 175.995 616.774 179.822 615.398 183.689 C 622.224 187.012 628.995 190.42 635.706 193.928 C 634.618 196.753 633.516 199.596 632.404 202.461 C 632.07 203.322 631.734 204.185 631.398 205.051 C 631.305 205.291 631.212 205.532 631.118 205.773 C 637.618 209.369 644.047 213.069 650.393 216.87 C 648.617 220.945 646.815 225.064 644.978 229.227 C 651.165 233 657.27 236.87 663.287 240.83 C 661.293 244.959 659.266 249.128 657.194 253.335 C 663.024 257.328 668.764 261.409 674.41 265.565 C 672.149 269.804 669.842 274.08 667.476 278.383 C 672.963 282.542 678.357 286.777 683.657 291.07 C 681.13 295.378 678.542 299.714 675.878 304.066 C 681.011 308.376 686.052 312.745 691.001 317.155 C 688.169 321.527 685.256 325.917 682.247 330.306 C 686.939 334.796 691.54 339.327 696.055 343.876 C 692.782 348.354 689.405 352.835 685.903 357.295 C 690.258 361.828 694.531 366.383 698.731 370.928 C 698.527 371.178 698.322 371.427 698.117 371.676 C 698.015 371.798 697.913 371.921 697.812 372.044 C 694.438 376.124 690.954 380.182 687.357 384.196 C 691.399 388.422 695.387 392.635 699.338 396.822 C 695.289 400.89 691.122 404.912 686.84 408.87 C 690.564 413.492 694.242 418.092 697.887 422.656 C 693.348 427.052 688.673 431.38 683.863 435.626 C 687.337 440.255 690.781 444.851 694.205 449.405 C 689.227 453.716 684.115 457.944 678.875 462.082 C 682.016 466.748 685.136 471.373 688.24 475.957 C 682.714 480.2 677.057 484.345 671.279 488.391 C 674.266 492.972 677.241 497.507 680.205 502.001 C 674.318 506.038 668.315 509.974 662.207 513.812 C 665.018 518.346 667.819 522.834 670.607 527.283 C 664.35 531.15 657.993 534.914 651.547 538.587 C 654.156 543.045 656.75 547.459 659.323 551.842 C 658.38 552.364 657.435 552.884 656.489 553.402 C 655.054 554.187 653.616 554.968 652.175 555.744 C 647.893 558.051 643.583 560.321 639.245 562.562 C 641.697 566.925 644.129 571.252 646.521 575.557 C 639.654 579.016 632.73 582.399 625.753 585.733 C 627.905 590.028 630.016 594.293 632.066 598.539 C 624.859 601.848 617.607 605.103 610.311 608.332 C 612.354 612.461 614.339 616.563 616.244 620.648 C 608.957 623.751 601.637 626.825 594.282 629.898 C 596.09 633.901 597.822 637.879 599.452 641.838 C 592.015 644.818 584.553 647.794 577.063 650.794 C 578.695 654.632 580.231 658.443 581.646 662.235 C 574.173 665.102 566.683 667.991 559.17 670.928 C 560.603 674.584 561.918 678.212 563.09 681.816 C 555.611 684.607 548.121 687.445 540.612 690.355 C 541.686 693.836 542.624 697.284 543.398 700.699 C 535.81 703.477 528.215 706.331 520.601 709.289 C 521.534 712.492 522.309 715.656 522.9 718.783 C 515.462 721.519 508.019 724.357 500.558 727.324 C 501.121 730.379 501.501 733.382 501.667 736.332" fill="none" mask="url(#_mask_a6P4hEH9TzX9MWU2CnivTpu7CPyVhnbg)" vector-effect="non-scaling-stroke" stroke-width="3.2" stroke="url(#_lgradient_12)" stroke-linejoin="miter" stroke-linecap="butt" stroke-miterlimit="4"/><mask id="_mask_g5fiOurTxQFxuD2JXlqcch2jfHbEZtF8" x="-200%" y="-200%" width="400%" height="400%"><rect x="-200%" y="-200%" width="400%" height="400%" style="fill:white;"/><path d=" M 442.839 59.951 C 442.61 63.152 442.378 66.369 442.132 69.602 C 448.742 72.621 455.338 75.681 461.915 78.773 C 461.502 81.919 461.076 85.083 460.627 88.265 C 467.17 91.392 473.695 94.553 480.198 97.743 C 479.715 100.963 479.207 104.203 478.669 107.462 C 485.084 110.734 491.478 114.038 497.845 117.366 C 497.216 120.712 496.553 124.081 495.848 127.471 C 502.161 130.806 508.449 134.167 514.709 137.548 C 513.949 140.948 513.146 144.371 512.294 147.815 C 518.514 151.258 524.707 154.723 530.869 158.206 C 529.975 161.715 529.028 165.248 528.024 168.803 C 534.112 172.353 540.17 175.922 546.196 179.505 C 545.115 183.131 543.973 186.781 542.764 190.452 C 548.736 194.108 554.676 197.78 560.582 201.463 C 559.316 205.211 557.981 208.982 556.572 212.772 C 557.342 213.28 558.112 213.788 558.881 214.296 C 560.433 215.321 561.981 216.347 563.526 217.374 C 566.968 219.661 570.396 221.954 573.809 224.253 C 572.263 228.18 570.635 232.131 568.92 236.1 C 574.542 239.982 580.122 243.876 585.658 247.779 C 583.856 251.783 581.965 255.806 579.981 259.842 C 585.399 263.846 590.771 267.857 596.092 271.872 C 593.983 276.007 591.776 280.156 589.47 284.315 C 594.691 288.398 599.859 292.485 604.972 296.574 C 602.559 300.797 600.044 305.029 597.428 309.267 C 602.424 313.425 607.36 317.584 612.235 321.747 C 609.494 326.049 606.648 330.354 603.7 334.664 C 608.358 338.939 612.946 343.216 617.463 347.5 C 614.285 351.916 610.999 356.331 607.61 360.748 C 611.992 365.021 616.299 369.297 620.528 373.586 C 619.532 374.826 618.528 376.067 617.516 377.307 C 616.289 378.812 615.049 380.317 613.798 381.821 C 612.426 383.469 611.039 385.116 609.639 386.763 C 613.715 390.712 617.717 394.659 621.647 398.607 C 617.792 402.641 613.854 406.666 609.838 410.683 C 613.571 414.994 617.218 419.302 620.782 423.609 C 616.543 427.981 612.216 432.34 607.805 436.686 C 611.218 440.975 614.548 445.26 617.796 449.543 C 613.24 453.863 608.604 458.168 603.892 462.458 C 606.892 466.761 609.809 471.058 612.641 475.348 C 607.685 479.65 602.654 483.934 597.554 488.203 C 600.296 492.389 602.957 496.566 605.536 500.734 C 600.355 504.892 595.111 509.032 589.805 513.156 C 592.268 517.266 594.65 521.363 596.948 525.445 C 591.533 529.504 586.061 533.546 580.532 537.572 C 582.699 541.579 584.785 545.568 586.785 549.536 C 585.895 550.157 585.003 550.778 584.11 551.398 C 582.229 552.706 580.342 554.013 578.45 555.318 C 575.538 557.325 572.615 559.327 569.68 561.324 C 571.604 565.209 573.456 569.073 575.239 572.916 C 569.422 576.749 563.562 580.567 557.662 584.37 C 559.259 588.183 560.788 591.975 562.25 595.746 C 556.166 599.519 550.043 603.277 543.883 607.021 C 545.342 610.667 546.738 614.294 548.072 617.901 C 541.916 621.523 535.726 625.132 529.504 628.729 C 530.745 632.278 531.926 635.809 533.049 639.32 C 526.738 642.86 520.397 646.388 514.028 649.904 C 515.124 653.336 516.165 656.75 517.152 660.146 C 510.761 663.585 504.343 667.012 497.902 670.427 C 498.859 673.755 499.764 677.065 500.622 680.357 C 494.153 683.706 487.662 687.044 481.15 690.369 C 481.857 693.639 482.518 696.892 483.137 700.125 C 476.478 703.429 469.8 706.721 463.105 710 C 463.77 713.131 464.395 716.245 464.985 719.342 C 458.341 722.522 451.681 725.689 445.008 728.841 C 445.452 732.009 445.862 735.159 446.242 738.29" fill="black" stroke="none"/></mask><path d=" M 442.839 59.951 C 442.61 63.152 442.378 66.369 442.132 69.602 C 448.742 72.621 455.338 75.681 461.915 78.773 C 461.502 81.919 461.076 85.083 460.627 88.265 C 467.17 91.392 473.695 94.553 480.198 97.743 C 479.715 100.963 479.207 104.203 478.669 107.462 C 485.084 110.734 491.478 114.038 497.845 117.366 C 497.216 120.712 496.553 124.081 495.848 127.471 C 502.161 130.806 508.449 134.167 514.709 137.548 C 513.949 140.948 513.146 144.371 512.294 147.815 C 518.514 151.258 524.707 154.723 530.869 158.206 C 529.975 161.715 529.028 165.248 528.024 168.803 C 534.112 172.353 540.17 175.922 546.196 179.505 C 545.115 183.131 543.973 186.781 542.764 190.452 C 548.736 194.108 554.676 197.78 560.582 201.463 C 559.316 205.211 557.981 208.982 556.572 212.772 C 557.342 213.28 558.112 213.788 558.881 214.296 C 560.433 215.321 561.981 216.347 563.526 217.374 C 566.968 219.661 570.396 221.954 573.809 224.253 C 572.263 228.18 570.635 232.131 568.92 236.1 C 574.542 239.982 580.122 243.876 585.658 247.779 C 583.856 251.783 581.965 255.806 579.981 259.842 C 585.399 263.846 590.771 267.857 596.092 271.872 C 593.983 276.007 591.776 280.156 589.47 284.315 C 594.691 288.398 599.859 292.485 604.972 296.574 C 602.559 300.797 600.044 305.029 597.428 309.267 C 602.424 313.425 607.36 317.584 612.235 321.747 C 609.494 326.049 606.648 330.354 603.7 334.664 C 608.358 338.939 612.946 343.216 617.463 347.5 C 614.285 351.916 610.999 356.331 607.61 360.748 C 611.992 365.021 616.299 369.297 620.528 373.586 C 619.532 374.826 618.528 376.067 617.516 377.307 C 616.289 378.812 615.049 380.317 613.798 381.821 C 612.426 383.469 611.039 385.116 609.639 386.763 C 613.715 390.712 617.717 394.659 621.647 398.607 C 617.792 402.641 613.854 406.666 609.838 410.683 C 613.571 414.994 617.218 419.302 620.782 423.609 C 616.543 427.981 612.216 432.34 607.805 436.686 C 611.218 440.975 614.548 445.26 617.796 449.543 C 613.24 453.863 608.604 458.168 603.892 462.458 C 606.892 466.761 609.809 471.058 612.641 475.348 C 607.685 479.65 602.654 483.934 597.554 488.203 C 600.296 492.389 602.957 496.566 605.536 500.734 C 600.355 504.892 595.111 509.032 589.805 513.156 C 592.268 517.266 594.65 521.363 596.948 525.445 C 591.533 529.504 586.061 533.546 580.532 537.572 C 582.699 541.579 584.785 545.568 586.785 549.536 C 585.895 550.157 585.003 550.778 584.11 551.398 C 582.229 552.706 580.342 554.013 578.45 555.318 C 575.538 557.325 572.615 559.327 569.68 561.324 C 571.604 565.209 573.456 569.073 575.239 572.916 C 569.422 576.749 563.562 580.567 557.662 584.37 C 559.259 588.183 560.788 591.975 562.25 595.746 C 556.166 599.519 550.043 603.277 543.883 607.021 C 545.342 610.667 546.738 614.294 548.072 617.901 C 541.916 621.523 535.726 625.132 529.504 628.729 C 530.745 632.278 531.926 635.809 533.049 639.32 C 526.738 642.86 520.397 646.388 514.028 649.904 C 515.124 653.336 516.165 656.75 517.152 660.146 C 510.761 663.585 504.343 667.012 497.902 670.427 C 498.859 673.755 499.764 677.065 500.622 680.357 C 494.153 683.706 487.662 687.044 481.15 690.369 C 481.857 693.639 482.518 696.892 483.137 700.125 C 476.478 703.429 469.8 706.721 463.105 710 C 463.77 713.131 464.395 716.245 464.985 719.342 C 458.341 722.522 451.681 725.689 445.008 728.841 C 445.452 732.009 445.862 735.159 446.242 738.29" fill="none"/><linearGradient id="_lgradient_13" x1="0.34372509910647064" y1="0.554578435631707" x2="1.8013285288556207" y2="-0.04976720712782168"><stop offset="0%" stop-opacity="1" style="stop-color:rgb(50,53,56)"/><stop offset="57.374%" stop-opacity="1" style="stop-color:rgb(82,86,86)"/><stop offset="100%" stop-opacity="1" style="stop-color:rgb(50,53,56)"/></linearGradient><path d=" M 442.839 59.951 C 442.61 63.152 442.378 66.369 442.132 69.602 C 448.742 72.621 455.338 75.681 461.915 78.773 C 461.502 81.919 461.076 85.083 460.627 88.265 C 467.17 91.392 473.695 94.553 480.198 97.743 C 479.715 100.963 479.207 104.203 478.669 107.462 C 485.084 110.734 491.478 114.038 497.845 117.366 C 497.216 120.712 496.553 124.081 495.848 127.471 C 502.161 130.806 508.449 134.167 514.709 137.548 C 513.949 140.948 513.146 144.371 512.294 147.815 C 518.514 151.258 524.707 154.723 530.869 158.206 C 529.975 161.715 529.028 165.248 528.024 168.803 C 534.112 172.353 540.17 175.922 546.196 179.505 C 545.115 183.131 543.973 186.781 542.764 190.452 C 548.736 194.108 554.676 197.78 560.582 201.463 C 559.316 205.211 557.981 208.982 556.572 212.772 C 557.342 213.28 558.112 213.788 558.881 214.296 C 560.433 215.321 561.981 216.347 563.526 217.374 C 566.968 219.661 570.396 221.954 573.809 224.253 C 572.263 228.18 570.635 232.131 568.92 236.1 C 574.542 239.982 580.122 243.876 585.658 247.779 C 583.856 251.783 581.965 255.806 579.981 259.842 C 585.399 263.846 590.771 267.857 596.092 271.872 C 593.983 276.007 591.776 280.156 589.47 284.315 C 594.691 288.398 599.859 292.485 604.972 296.574 C 602.559 300.797 600.044 305.029 597.428 309.267 C 602.424 313.425 607.36 317.584 612.235 321.747 C 609.494 326.049 606.648 330.354 603.7 334.664 C 608.358 338.939 612.946 343.216 617.463 347.5 C 614.285 351.916 610.999 356.331 607.61 360.748 C 611.992 365.021 616.299 369.297 620.528 373.586 C 619.532 374.826 618.528 376.067 617.516 377.307 C 616.289 378.812 615.049 380.317 613.798 381.821 C 612.426 383.469 611.039 385.116 609.639 386.763 C 613.715 390.712 617.717 394.659 621.647 398.607 C 617.792 402.641 613.854 406.666 609.838 410.683 C 613.571 414.994 617.218 419.302 620.782 423.609 C 616.543 427.981 612.216 432.34 607.805 436.686 C 611.218 440.975 614.548 445.26 617.796 449.543 C 613.24 453.863 608.604 458.168 603.892 462.458 C 606.892 466.761 609.809 471.058 612.641 475.348 C 607.685 479.65 602.654 483.934 597.554 488.203 C 600.296 492.389 602.957 496.566 605.536 500.734 C 600.355 504.892 595.111 509.032 589.805 513.156 C 592.268 517.266 594.65 521.363 596.948 525.445 C 591.533 529.504 586.061 533.546 580.532 537.572 C 582.699 541.579 584.785 545.568 586.785 549.536 C 585.895 550.157 585.003 550.778 584.11 551.398 C 582.229 552.706 580.342 554.013 578.45 555.318 C 575.538 557.325 572.615 559.327 569.68 561.324 C 571.604 565.209 573.456 569.073 575.239 572.916 C 569.422 576.749 563.562 580.567 557.662 584.37 C 559.259 588.183 560.788 591.975 562.25 595.746 C 556.166 599.519 550.043 603.277 543.883 607.021 C 545.342 610.667 546.738 614.294 548.072 617.901 C 541.916 621.523 535.726 625.132 529.504 628.729 C 530.745 632.278 531.926 635.809 533.049 639.32 C 526.738 642.86 520.397 646.388 514.028 649.904 C 515.124 653.336 516.165 656.75 517.152 660.146 C 510.761 663.585 504.343 667.012 497.902 670.427 C 498.859 673.755 499.764 677.065 500.622 680.357 C 494.153 683.706 487.662 687.044 481.15 690.369 C 481.857 693.639 482.518 696.892 483.137 700.125 C 476.478 703.429 469.8 706.721 463.105 710 C 463.77 713.131 464.395 716.245 464.985 719.342 C 458.341 722.522 451.681 725.689 445.008 728.841 C 445.452 732.009 445.862 735.159 446.242 738.29" fill="none" mask="url(#_mask_g5fiOurTxQFxuD2JXlqcch2jfHbEZtF8)" vector-effect="non-scaling-stroke" stroke-width="3.2" stroke="url(#_lgradient_13)" stroke-linejoin="miter" stroke-linecap="butt" stroke-miterlimit="4"/><mask id="_mask_oW3SCJOLbRNngwDzwkJVavWK0jIjesYG" x="-200%" y="-200%" width="400%" height="400%"><rect x="-200%" y="-200%" width="400%" height="400%" style="fill:white;"/><path d=" M 476.041 60.266 C 475.824 63.315 475.567 66.391 475.271 69.494 C 482.467 72.387 489.647 75.282 496.81 78.183 C 496.37 81.233 495.888 84.309 495.366 87.412 C 502.526 90.374 509.664 93.342 516.781 96.318 C 516.25 99.483 515.675 102.675 515.057 105.895 C 522.103 108.976 529.125 112.068 536.119 115.173 C 535.423 118.5 534.679 121.856 533.888 125.242 C 540.841 128.371 547.764 131.514 554.659 134.674 C 553.821 138.083 552.935 141.522 551.999 144.99 C 558.86 148.221 565.688 151.471 572.483 154.741 C 571.508 158.282 570.482 161.853 569.404 165.455 C 576.121 168.798 582.802 172.163 589.445 175.553 C 588.284 179.229 587.067 182.936 585.797 186.674 C 592.379 190.136 598.921 193.624 605.422 197.139 C 604.084 200.951 602.688 204.794 601.236 208.669 C 603.786 210.128 606.329 211.592 608.864 213.062 C 611.504 214.591 614.136 216.125 616.759 217.666 C 617.901 218.337 619.041 219.009 620.18 219.683 C 618.574 223.684 616.906 227.718 615.171 231.789 C 621.335 235.516 627.442 239.275 633.486 243.071 C 631.643 247.157 629.731 251.277 627.749 255.431 C 633.65 259.308 639.483 263.22 645.242 267.169 C 643.105 271.402 640.893 275.669 638.604 279.968 C 644.23 283.965 649.777 287.997 655.244 292.068 C 655.137 292.258 655.031 292.448 654.924 292.637 C 653.807 294.628 652.673 296.624 651.521 298.628 C 650.268 300.808 648.995 302.996 647.7 305.192 C 653.008 309.311 658.227 313.468 663.353 317.655 C 660.589 322.101 657.738 326.573 654.794 331.068 C 659.664 335.346 664.435 339.651 669.104 343.981 C 665.894 348.559 662.587 353.156 659.181 357.771 C 663.682 362.059 668.08 366.366 672.369 370.694 C 671.217 372.164 670.055 373.636 668.882 375.109 C 667.208 377.213 665.513 379.32 663.794 381.431 C 662.985 382.425 662.171 383.42 661.352 384.415 C 665.461 388.363 669.465 392.322 673.372 396.285 C 669.45 400.478 665.444 404.679 661.356 408.878 C 665.036 413.188 668.606 417.502 672.073 421.813 C 667.73 426.355 663.292 430.892 658.761 435.418 C 662.053 439.694 665.247 443.966 668.348 448.229 C 663.648 452.716 658.859 457.189 653.983 461.642 C 656.813 465.92 659.553 470.187 662.206 474.437 C 657.062 478.9 651.833 483.34 646.52 487.754 C 649.067 491.897 651.533 496.022 653.923 500.124 C 648.516 504.427 643.032 508.701 637.473 512.946 C 639.731 516.994 641.916 521.016 644.029 525.009 C 638.347 529.193 632.595 533.344 626.774 537.463 C 628.699 541.299 630.559 545.103 632.352 548.873 C 632.393 548.96 632.434 549.047 632.475 549.134 C 630.364 550.568 628.246 551.999 626.119 553.426 C 622.246 556.023 618.349 558.604 614.429 561.171 C 616.179 564.957 617.877 568.711 619.528 572.434 C 613.377 576.347 607.173 580.225 600.919 584.068 C 602.367 587.778 603.769 591.458 605.124 595.109 C 598.67 598.938 592.167 602.734 585.62 606.496 C 586.966 610.037 588.269 613.552 589.533 617.04 C 582.982 620.696 576.389 624.319 569.759 627.911 C 570.916 631.358 572.034 634.779 573.116 638.176 C 566.382 641.728 559.613 645.248 552.81 648.74 C 553.854 652.073 554.865 655.383 555.843 658.671 C 549.008 662.1 542.141 665.501 535.247 668.874 C 536.184 672.108 537.091 675.321 537.971 678.514 C 531.039 681.834 524.082 685.128 517.102 688.396 C 517.813 691.58 518.498 694.742 519.158 697.885 C 512.012 701.144 504.846 704.377 497.66 707.586 C 498.363 710.639 499.046 713.673 499.708 716.689 C 492.571 719.811 485.418 722.91 478.25 725.986 C 478.753 729.08 479.238 732.155 479.705 735.21" fill="black" stroke="none"/></mask><path d=" M 476.041 60.266 C 475.824 63.315 475.567 66.391 475.271 69.494 C 482.467 72.387 489.647 75.282 496.81 78.183 C 496.37 81.233 495.888 84.309 495.366 87.412 C 502.526 90.374 509.664 93.342 516.781 96.318 C 516.25 99.483 515.675 102.675 515.057 105.895 C 522.103 108.976 529.125 112.068 536.119 115.173 C 535.423 118.5 534.679 121.856 533.888 125.242 C 540.841 128.371 547.764 131.514 554.659 134.674 C 553.821 138.083 552.935 141.522 551.999 144.99 C 558.86 148.221 565.688 151.471 572.483 154.741 C 571.508 158.282 570.482 161.853 569.404 165.455 C 576.121 168.798 582.802 172.163 589.445 175.553 C 588.284 179.229 587.067 182.936 585.797 186.674 C 592.379 190.136 598.921 193.624 605.422 197.139 C 604.084 200.951 602.688 204.794 601.236 208.669 C 603.786 210.128 606.329 211.592 608.864 213.062 C 611.504 214.591 614.136 216.125 616.759 217.666 C 617.901 218.337 619.041 219.009 620.18 219.683 C 618.574 223.684 616.906 227.718 615.171 231.789 C 621.335 235.516 627.442 239.275 633.486 243.071 C 631.643 247.157 629.731 251.277 627.749 255.431 C 633.65 259.308 639.483 263.22 645.242 267.169 C 643.105 271.402 640.893 275.669 638.604 279.968 C 644.23 283.965 649.777 287.997 655.244 292.068 C 655.137 292.258 655.031 292.448 654.924 292.637 C 653.807 294.628 652.673 296.624 651.521 298.628 C 650.268 300.808 648.995 302.996 647.7 305.192 C 653.008 309.311 658.227 313.468 663.353 317.655 C 660.589 322.101 657.738 326.573 654.794 331.068 C 659.664 335.346 664.435 339.651 669.104 343.981 C 665.894 348.559 662.587 353.156 659.181 357.771 C 663.682 362.059 668.08 366.366 672.369 370.694 C 671.217 372.164 670.055 373.636 668.882 375.109 C 667.208 377.213 665.513 379.32 663.794 381.431 C 662.985 382.425 662.171 383.42 661.352 384.415 C 665.461 388.363 669.465 392.322 673.372 396.285 C 669.45 400.478 665.444 404.679 661.356 408.878 C 665.036 413.188 668.606 417.502 672.073 421.813 C 667.73 426.355 663.292 430.892 658.761 435.418 C 662.053 439.694 665.247 443.966 668.348 448.229 C 663.648 452.716 658.859 457.189 653.983 461.642 C 656.813 465.92 659.553 470.187 662.206 474.437 C 657.062 478.9 651.833 483.34 646.52 487.754 C 649.067 491.897 651.533 496.022 653.923 500.124 C 648.516 504.427 643.032 508.701 637.473 512.946 C 639.731 516.994 641.916 521.016 644.029 525.009 C 638.347 529.193 632.595 533.344 626.774 537.463 C 628.699 541.299 630.559 545.103 632.352 548.873 C 632.393 548.96 632.434 549.047 632.475 549.134 C 630.364 550.568 628.246 551.999 626.119 553.426 C 622.246 556.023 618.349 558.604 614.429 561.171 C 616.179 564.957 617.877 568.711 619.528 572.434 C 613.377 576.347 607.173 580.225 600.919 584.068 C 602.367 587.778 603.769 591.458 605.124 595.109 C 598.67 598.938 592.167 602.734 585.62 606.496 C 586.966 610.037 588.269 613.552 589.533 617.04 C 582.982 620.696 576.389 624.319 569.759 627.911 C 570.916 631.358 572.034 634.779 573.116 638.176 C 566.382 641.728 559.613 645.248 552.81 648.74 C 553.854 652.073 554.865 655.383 555.843 658.671 C 549.008 662.1 542.141 665.501 535.247 668.874 C 536.184 672.108 537.091 675.321 537.971 678.514 C 531.039 681.834 524.082 685.128 517.102 688.396 C 517.813 691.58 518.498 694.742 519.158 697.885 C 512.012 701.144 504.846 704.377 497.66 707.586 C 498.363 710.639 499.046 713.673 499.708 716.689 C 492.571 719.811 485.418 722.91 478.25 725.986 C 478.753 729.08 479.238 732.155 479.705 735.21" fill="none"/><linearGradient id="_lgradient_14" x1="-0.011745724033913163" y1="0.4999654103420317" x2="1.453779495727934" y2="-0.3133154039884056"><stop offset="0%" stop-opacity="1" style="stop-color:rgb(50,53,56)"/><stop offset="57.374%" stop-opacity="1" style="stop-color:rgb(82,86,86)"/><stop offset="100%" stop-opacity="1" style="stop-color:rgb(50,53,56)"/></linearGradient><path d=" M 476.041 60.266 C 475.824 63.315 475.567 66.391 475.271 69.494 C 482.467 72.387 489.647 75.282 496.81 78.183 C 496.37 81.233 495.888 84.309 495.366 87.412 C 502.526 90.374 509.664 93.342 516.781 96.318 C 516.25 99.483 515.675 102.675 515.057 105.895 C 522.103 108.976 529.125 112.068 536.119 115.173 C 535.423 118.5 534.679 121.856 533.888 125.242 C 540.841 128.371 547.764 131.514 554.659 134.674 C 553.821 138.083 552.935 141.522 551.999 144.99 C 558.86 148.221 565.688 151.471 572.483 154.741 C 571.508 158.282 570.482 161.853 569.404 165.455 C 576.121 168.798 582.802 172.163 589.445 175.553 C 588.284 179.229 587.067 182.936 585.797 186.674 C 592.379 190.136 598.921 193.624 605.422 197.139 C 604.084 200.951 602.688 204.794 601.236 208.669 C 603.786 210.128 606.329 211.592 608.864 213.062 C 611.504 214.591 614.136 216.125 616.759 217.666 C 617.901 218.337 619.041 219.009 620.18 219.683 C 618.574 223.684 616.906 227.718 615.171 231.789 C 621.335 235.516 627.442 239.275 633.486 243.071 C 631.643 247.157 629.731 251.277 627.749 255.431 C 633.65 259.308 639.483 263.22 645.242 267.169 C 643.105 271.402 640.893 275.669 638.604 279.968 C 644.23 283.965 649.777 287.997 655.244 292.068 C 655.137 292.258 655.031 292.448 654.924 292.637 C 653.807 294.628 652.673 296.624 651.521 298.628 C 650.268 300.808 648.995 302.996 647.7 305.192 C 653.008 309.311 658.227 313.468 663.353 317.655 C 660.589 322.101 657.738 326.573 654.794 331.068 C 659.664 335.346 664.435 339.651 669.104 343.981 C 665.894 348.559 662.587 353.156 659.181 357.771 C 663.682 362.059 668.08 366.366 672.369 370.694 C 671.217 372.164 670.055 373.636 668.882 375.109 C 667.208 377.213 665.513 379.32 663.794 381.431 C 662.985 382.425 662.171 383.42 661.352 384.415 C 665.461 388.363 669.465 392.322 673.372 396.285 C 669.45 400.478 665.444 404.679 661.356 408.878 C 665.036 413.188 668.606 417.502 672.073 421.813 C 667.73 426.355 663.292 430.892 658.761 435.418 C 662.053 439.694 665.247 443.966 668.348 448.229 C 663.648 452.716 658.859 457.189 653.983 461.642 C 656.813 465.92 659.553 470.187 662.206 474.437 C 657.062 478.9 651.833 483.34 646.52 487.754 C 649.067 491.897 651.533 496.022 653.923 500.124 C 648.516 504.427 643.032 508.701 637.473 512.946 C 639.731 516.994 641.916 521.016 644.029 525.009 C 638.347 529.193 632.595 533.344 626.774 537.463 C 628.699 541.299 630.559 545.103 632.352 548.873 C 632.393 548.96 632.434 549.047 632.475 549.134 C 630.364 550.568 628.246 551.999 626.119 553.426 C 622.246 556.023 618.349 558.604 614.429 561.171 C 616.179 564.957 617.877 568.711 619.528 572.434 C 613.377 576.347 607.173 580.225 600.919 584.068 C 602.367 587.778 603.769 591.458 605.124 595.109 C 598.67 598.938 592.167 602.734 585.62 606.496 C 586.966 610.037 588.269 613.552 589.533 617.04 C 582.982 620.696 576.389 624.319 569.759 627.911 C 570.916 631.358 572.034 634.779 573.116 638.176 C 566.382 641.728 559.613 645.248 552.81 648.74 C 553.854 652.073 554.865 655.383 555.843 658.671 C 549.008 662.1 542.141 665.501 535.247 668.874 C 536.184 672.108 537.091 675.321 537.971 678.514 C 531.039 681.834 524.082 685.128 517.102 688.396 C 517.813 691.58 518.498 694.742 519.158 697.885 C 512.012 701.144 504.846 704.377 497.66 707.586 C 498.363 710.639 499.046 713.673 499.708 716.689 C 492.571 719.811 485.418 722.91 478.25 725.986 C 478.753 729.08 479.238 732.155 479.705 735.21" fill="none" mask="url(#_mask_oW3SCJOLbRNngwDzwkJVavWK0jIjesYG)" vector-effect="non-scaling-stroke" stroke-width="3.2" stroke="url(#_lgradient_14)" stroke-linejoin="miter" stroke-linecap="butt" stroke-miterlimit="4"/><mask id="_mask_wlbRsescwcbTO3EeltRVw4l9H2xZhwGE" x="-200%" y="-200%" width="400%" height="400%"><rect x="-200%" y="-200%" width="400%" height="400%" style="fill:white;"/><path d=" M 452.787 59.846 C 722.73 307.17 679.022 518.999 460.645 733.405" fill="black" stroke="none"/></mask><path d=" M 452.787 59.846 C 722.73 307.17 679.022 518.999 460.645 733.405" fill="none"/><linearGradient id="_lgradient_15" x1="0.25574350945915114" y1="0.5191520866617312" x2="1.5780817997454644" y2="-0.1865116172093959"><stop offset="0%" stop-opacity="1" style="stop-color:rgb(50,53,56)"/><stop offset="65.159%" stop-opacity="1" style="stop-color:rgb(87,86,86)"/><stop offset="100%" stop-opacity="1" style="stop-color:rgb(50,53,56)"/></linearGradient><path d=" M 452.787 59.846 C 722.73 307.17 679.022 518.999 460.645 733.405" fill="none" mask="url(#_mask_wlbRsescwcbTO3EeltRVw4l9H2xZhwGE)" vector-effect="non-scaling-stroke" stroke-width="4" stroke="url(#_lgradient_15)" stroke-linejoin="miter" stroke-linecap="butt" stroke-miterlimit="4"/></g></g><g clip-path="url(#_clipPath_bOH0Szf2BkMmnOGG3yyEEbOczzCmcgHF)"><text transform="matrix(0.946,0.323,-0.323,0.946,333.898,162.107)" style="font-family:'Western Grungy by Marta van Eck';font-weight:400;font-size:60px;font-style:normal;fill:#dbc7a9;stroke:none;">C</text><text transform="matrix(0.819,0.574,-0.574,0.819,372.964,175.414)" style="font-family:'Western Grungy by Marta van Eck';font-weight:400;font-size:60px;font-style:normal;fill:#dbc7a9;stroke:none;">A</text><text transform="matrix(0.659,0.752,-0.752,0.659,411.519,203.146)" style="font-family:'Western Grungy by Marta van Eck';font-weight:400;font-size:60px;font-style:normal;fill:#dbc7a9;stroke:none;">T</text><text transform="matrix(0.515,0.857,-0.857,0.515,437.932,232.771)" style="font-family:'Western Grungy by Marta van Eck';font-weight:400;font-size:60px;font-style:normal;fill:#dbc7a9;stroke:none;">O</text><text transform="matrix(0.353,0.936,-0.936,0.353,462.081,273.413)" style="font-family:'Western Grungy by Marta van Eck';font-weight:400;font-size:60px;font-style:normal;fill:#dbc7a9;stroke:none;">O</text><text transform="matrix(0.212,0.977,-0.977,0.212,478.3,317.75)" style="font-family:'Western Grungy by Marta van Eck';font-weight:400;font-size:60px;font-style:normal;fill:#dbc7a9;stroke:none;">S</text><text transform="matrix(0.055,0.998,-0.998,0.055,487.214,358.435)" style="font-family:'Western Grungy by Marta van Eck';font-weight:400;font-size:60px;font-style:normal;fill:#dbc7a9;stroke:none;">A </text><text transform="matrix(-0.115,0.993,-0.993,-0.115,488.825,420.637)" style="font-family:'Western Grungy by Marta van Eck';font-weight:400;font-size:60px;font-style:normal;fill:#dbc7a9;stroke:none;">I</text><text transform="matrix(-0.259,0.966,-0.966,-0.259,485.474,453.775)" style="font-family:'Western Grungy by Marta van Eck';font-weight:400;font-size:60px;font-style:normal;fill:#dbc7a9;stroke:none;">N</text><text transform="matrix(-0.461,0.887,-0.887,-0.461,472.046,504.376)" style="font-family:'Western Grungy by Marta van Eck';font-weight:400;font-size:60px;font-style:normal;fill:#dbc7a9;stroke:none;">N                                      </text><text transform="matrix(-0.398,-0.917,0.917,-0.398,172.255,520.743)" style="font-family:'Western Grungy by Marta van Eck';font-weight:400;font-size:36px;font-style:normal;fill:#e3e3e3;stroke:none;">C</text><text transform="matrix(-0.322,-0.947,0.947,-0.322,162.205,498.274)" style="font-family:'Western Grungy by Marta van Eck';font-weight:400;font-size:36px;font-style:normal;fill:#e3e3e3;stroke:none;">A</text><text transform="matrix(-0.245,-0.97,0.97,-0.245,153.204,471.328)" style="font-family:'Western Grungy by Marta van Eck';font-weight:400;font-size:36px;font-style:normal;fill:#e3e3e3;stroke:none;">T</text><text transform="matrix(-0.167,-0.986,0.986,-0.167,147.58,448.272)" style="font-family:'Western Grungy by Marta van Eck';font-weight:400;font-size:36px;font-style:normal;fill:#e3e3e3;stroke:none;">O</text><text transform="matrix(-0.055,-0.998,0.998,-0.055,142.978,420.32)" style="font-family:'Western Grungy by Marta van Eck';font-weight:400;font-size:36px;font-style:normal;fill:#e3e3e3;stroke:none;">O</text><text transform="matrix(0.029,-1,1,0.029,141.368,392.05)" style="font-family:'Western Grungy by Marta van Eck';font-weight:400;font-size:36px;font-style:normal;fill:#e3e3e3;stroke:none;">S</text><text transform="matrix(0.115,-0.993,0.993,0.115,141.874,367.105)" style="font-family:'Western Grungy by Marta van Eck';font-weight:400;font-size:36px;font-style:normal;fill:#e3e3e3;stroke:none;">A</text><text transform="matrix(0.148,-0.989,0.989,0.148,145.444,338.927)" style="font-family:'Western Grungy by Marta van Eck';font-weight:400;font-size:36px;font-style:normal;fill:#e3e3e3;stroke:none;">, </text><text transform="matrix(0.272,-0.962,0.962,0.272,148.683,320.466)" style="font-family:'Western Grungy by Marta van Eck';font-weight:400;font-size:36px;font-style:normal;fill:#e3e3e3;stroke:none;">O</text><text transform="matrix(0.384,-0.923,0.923,0.384,156.27,293.158)" style="font-family:'Western Grungy by Marta van Eck';font-weight:400;font-size:36px;font-style:normal;fill:#e3e3e3;stroke:none;">K</text><text transform="matrix(0.5,-0.866,0.866,0.5,169.36,261.901)" style="font-family:'Western Grungy by Marta van Eck';font-weight:400;font-size:36px;font-style:normal;fill:#e3e3e3;stroke:none;">L</text><text transform="matrix(0.582,-0.813,0.813,0.582,180.681,241.712)" style="font-family:'Western Grungy by Marta van Eck';font-weight:400;font-size:36px;font-style:normal;fill:#e3e3e3;stroke:none;">A</text><text transform="matrix(0.717,-0.697,0.697,0.717,196.886,218.211)" style="font-family:'Western Grungy by Marta van Eck';font-weight:400;font-size:36px;font-style:normal;fill:#e3e3e3;stroke:none;">H</text><text transform="matrix(0.824,-0.566,0.566,0.824,221.898,193.975)" style="font-family:'Western Grungy by Marta van Eck';font-weight:400;font-size:36px;font-style:normal;fill:#e3e3e3;stroke:none;">O</text><text transform="matrix(0.933,-0.36,0.36,0.933,245.039,177.291)" style="font-family:'Western Grungy by Marta van Eck';font-weight:400;font-size:36px;font-style:normal;fill:#e3e3e3;stroke:none;">M</text><text transform="matrix(0.994,-0.113,0.113,0.994,279.152,164.165)" style="font-family:'Western Grungy by Marta van Eck';font-weight:400;font-size:36px;font-style:normal;fill:#e3e3e3;stroke:none;">A                            </text></g><defs><clipPath id="_clipPath_bOH0Szf2BkMmnOGG3yyEEbOczzCmcgHF"><rect x="0" y="0" width="446.869" height="415.197" transform="matrix(0.049,0.999,-0.999,0.049,512.852,113.665)"/></clipPath></defs><path d=" M 302.009 124.087 C 418.377 118.334 518.829 234.561 526.19 383.472 C 533.552 532.384 445.053 657.951 328.686 663.704 C 212.319 669.457 111.867 553.23 104.505 404.319 C 97.143 255.407 185.642 129.84 302.009 124.087 Z " fill="none"/><g style="mix-blend-mode:normal;" opacity="0.53"><g clip-path="url(#_clipPath_Z7Mz2kEGdDm50CUALTTjQdGGcbtFheL3)"><text transform="matrix(1,0,0,1,278.583,722.547)" style="font-family:'Western Grungy by Marta van Eck';font-weight:400;font-size:120px;font-style:normal;fill:#dbc7a9;stroke:none;">$</text></g><defs><clipPath id="_clipPath_Z7Mz2kEGdDm50CUALTTjQdGGcbtFheL3"><rect x="0" y="0" width="88.417" height="145" transform="matrix(1,0,0,1,278.583,622)"/></clipPath></defs></g><g clip-path="url(#_clipPath_BolH5lhsVQz0IA5mhyCnQUJLPIH0hyds)"><text transform="matrix(1,0,0,1,282.718,701.54)" style="font-family:'Acme';font-weight:400;font-size:60px;font-style:normal;fill:#e3e3e3;stroke:none;">76</text></g><defs><clipPath id="_clipPath_BolH5lhsVQz0IA5mhyCnQUJLPIH0hyds"><rect x="0" y="0" width="84.282" height="77.656" transform="matrix(1,0,0,1,282.718,644)"/></clipPath></defs></g></g></svg>